<svg width="120" height="48" viewBox="0 0 120 48" fill="none" xmlns="http://www.w3.org/2000/svg">
<g clip-path="url(#clip0_5164_1318)">
<path d="M33.0072 37.1831C28.1957 37.1831 23.3841 36.7968 18.5726 36.0241C13.761 35.2515 9.71933 34.2857 6.35124 33.0302L0 39.9839C3.65678 41.336 8.37209 42.495 14.3384 43.2676C20.3047 44.1368 26.5597 44.5231 33.0072 44.5231C36.1828 44.5231 39.0698 44.33 41.7642 44.1368C39.5509 42.1087 37.7225 39.6942 36.2791 36.9899C35.2205 36.9899 34.162 36.9899 33.0072 36.9899V37.1831Z" fill="#332E2B"/>
<path d="M88.3401 10.8169C91.9006 10.8169 95.5574 11.1066 99.4066 11.5895C103.256 12.0724 107.009 12.8451 110.569 13.9075L116.439 6.95373C112.783 5.79478 108.452 4.92556 103.448 4.34608C98.4443 3.76661 93.4403 3.47687 88.3401 3.47687C84.8757 3.47687 81.7964 3.67003 78.9094 3.86319C81.1227 5.89135 82.9511 8.30584 84.3946 11.0101C85.6456 11.0101 86.8004 10.9135 88.2438 10.9135L88.3401 10.8169Z" fill="#332E2B"/>
<path d="M83.8171 19.5091C83.2398 16.5151 82.085 13.7143 80.5453 11.2032C78.8131 8.49899 76.696 6.18109 74.0978 4.34608C70.2486 1.64185 65.5333 0 60.433 0C55.5252 0 50.9062 1.54527 47.0569 4.05634C44.3624 5.89135 42.0529 8.30584 40.3207 11.1066C38.5886 13.8109 37.4338 16.9014 36.9527 20.1851C35.7017 20.0885 34.5469 19.8954 33.3921 19.7988C32.1411 19.6056 30.6977 19.5091 29.5429 19.3159C26.7522 18.9296 24.5389 18.4467 22.8067 17.7706C21.0746 17.0946 20.3047 16.3219 20.3047 15.2596C20.3047 14.3903 20.7859 13.7143 21.8444 12.9417C22.9029 12.2656 24.5389 11.6861 26.7522 11.2998C28.9655 10.9135 31.9487 10.7203 35.6054 10.7203C35.8941 10.7203 36.1828 10.7203 36.3753 10.7203C37.8187 8.11268 39.6471 5.69819 41.8604 3.67002C39.8396 3.57344 37.8187 3.2837 35.7017 3.2837C28.0994 3.2837 21.7482 3.86318 16.7442 4.92555C11.6439 6.08451 7.98715 7.5332 5.48515 9.36821C2.98314 11.2032 1.82837 13.328 1.82837 15.5493C1.82837 17.674 2.69445 19.4125 4.33037 20.7646C5.9663 22.1167 8.17961 23.2757 11.0665 24.1449C13.8572 25.0141 16.9366 25.6901 20.3047 26.173C23.6728 26.6559 26.9446 27.1388 30.3127 27.5252C31.4675 27.6217 32.4298 27.8149 33.4883 27.9115C34.7394 28.1046 35.9904 28.2012 37.1451 28.3944C37.7225 31.3883 38.8773 34.1891 40.417 36.6036C42.1491 39.3078 44.3624 41.6258 46.9607 43.4608C50.8099 46.165 55.5252 47.8068 60.6255 47.8068C65.7257 47.8068 70.0561 46.3582 73.8091 43.7505C76.5998 41.9155 78.9094 39.501 80.6415 36.7002C82.3737 33.996 83.5284 30.9054 84.1058 27.6217C85.3568 27.7183 86.5116 27.9115 87.6664 28.1046C89.2061 28.2978 90.842 28.4909 92.2855 28.6841C95.0762 29.0704 97.3857 29.5533 99.0216 30.2294C100.754 30.8089 101.524 31.6781 101.524 32.7404C101.524 33.6097 100.946 34.2857 99.8877 34.9618C98.8292 35.5412 97.097 36.1207 94.8837 36.507C92.5742 36.8934 89.591 37.0865 85.9342 37.0865C85.4531 37.0865 85.0681 37.0865 84.587 37.0865C83.1435 39.7907 81.2189 42.2052 79.0056 44.33C81.3151 44.4266 83.5285 44.5231 85.9342 44.5231C93.5365 44.5231 99.8877 43.9437 104.988 42.7847C110.088 41.6258 113.841 40.1771 116.343 38.2455C118.845 36.4105 120.096 34.3823 120.096 32.0644C120.096 30.0362 119.23 28.2978 117.498 26.9457C115.766 25.5936 113.553 24.4346 110.762 23.662C107.971 22.8893 104.988 22.2133 101.62 21.6338C98.348 21.1509 94.9799 20.668 91.6118 20.2817C90.1684 20.0885 89.0136 19.992 87.6664 19.7988C86.4154 19.7022 85.1644 19.5091 84.0096 19.4125M60.5292 40.7565C60.0481 40.7565 59.5669 40.66 59.0858 40.5634C57.0649 40.3702 55.2365 39.8873 53.5044 39.1147C51.1948 38.0523 49.174 36.4105 47.6343 34.4789C46.4795 33.0302 45.5172 31.4849 44.8436 29.7465C44.17 27.9115 43.6888 25.8833 43.6888 23.7586C43.6888 22.7928 43.7851 21.827 43.9775 20.8612C44.5549 17.2877 46.2871 14.1006 48.6928 11.6861C51.7722 8.69215 55.9102 6.76056 60.6255 6.76056C61.2991 6.76056 61.9727 6.85714 62.7426 6.95372C63.0312 6.95372 63.3199 6.95372 63.7049 6.95372C67.939 7.72636 71.5958 10.0443 74.0978 13.328C75.0601 14.6801 75.9262 16.1288 76.5036 17.674C77.1772 19.5091 77.6583 21.5372 77.6583 23.662C77.6583 24.6278 77.5621 25.6901 77.3697 26.6559C76.696 30.2294 75.0601 33.4165 72.5581 35.831C69.4787 38.825 65.3408 40.66 60.8179 40.66L60.5292 40.7565Z" fill="#332E2B"/>
<path d="M62.5501 12.4588H58.2197V25.9799H58.4122H62.5501H71.2109V21.9235H62.5501V12.4588Z" fill="#332E2B"/>
</g>
<defs>
<clipPath id="clip0_5164_1318">
<rect width="120" height="48" fill="white"/>
</clipPath>
</defs>
</svg>
