<svg width="195" height="46" viewBox="0 0 195 46" fill="none" xmlns="http://www.w3.org/2000/svg">
<g clip-path="url(#clip0_5685_7094)">
<path d="M24.7554 32.8873C21.1468 32.8873 17.5381 32.5976 13.9294 32.0181C10.3208 31.4386 7.28949 30.7143 4.76343 29.7726L0 34.9879C2.74258 36.002 6.27907 36.8712 10.7538 37.4507C15.2285 38.1026 19.9198 38.3923 24.7554 38.3923C27.1371 38.3923 29.3023 38.2475 31.3232 38.1026C29.6632 36.5815 28.2919 34.7706 27.2093 32.7424C26.4154 32.7424 25.6215 32.7424 24.7554 32.7424V32.8873Z" fill="#332E2B"/>
<path d="M66.2551 13.1127C68.9255 13.1127 71.6681 13.33 74.555 13.6922C77.442 14.0543 80.2567 14.6338 82.9271 15.4306L87.3297 10.2153C84.5871 9.34608 81.3393 8.69417 77.5863 8.25956C73.8333 7.82495 70.0803 7.60765 66.2551 7.60765C63.6569 7.60765 61.3473 7.75252 59.1821 7.89739C60.8421 9.41852 62.2134 11.2294 63.296 13.2575C64.2343 13.2575 65.1003 13.1851 66.1829 13.1851L66.2551 13.1127Z" fill="#332E2B"/>
<path d="M62.8627 19.6318C62.4296 17.3863 61.5636 15.2857 60.4088 13.4024C59.1097 11.3742 57.5219 9.63582 55.5732 8.25956C52.6862 6.23139 49.1498 5 45.3246 5C41.6437 5 38.1794 6.15895 35.2925 8.04225C33.2717 9.41851 31.5395 11.2294 30.2404 13.33C28.9413 15.3582 28.0752 17.6761 27.7143 20.1388C26.7761 20.0664 25.91 19.9215 25.0439 19.8491C24.1057 19.7042 23.0231 19.6318 22.157 19.4869C20.064 19.1972 18.404 18.835 17.1049 18.328C15.8057 17.8209 15.2283 17.2415 15.2283 16.4447C15.2283 15.7928 15.5892 15.2857 16.3831 14.7062C17.177 14.1992 18.404 13.7646 20.064 13.4749C21.7239 13.1851 23.9613 13.0402 26.7039 13.0402C26.9204 13.0402 27.1369 13.0402 27.2813 13.0402C28.3639 11.0845 29.7352 9.27364 31.3951 7.75252C29.8795 7.68008 28.3639 7.46278 26.7761 7.46278C21.0744 7.46278 16.3109 7.89738 12.5579 8.69417C8.73276 9.56338 5.99018 10.6499 4.11368 12.0262C2.23717 13.4024 1.37109 14.996 1.37109 16.662C1.37109 18.2555 2.02065 19.5594 3.2476 20.5734C4.47454 21.5875 6.13453 22.4567 8.29972 23.1087C10.3927 23.7606 12.7023 24.2676 15.2283 24.6298C17.7544 24.992 20.2083 25.3541 22.7344 25.6439C23.6004 25.7163 24.3222 25.8612 25.1161 25.9336C26.0543 26.0785 26.9926 26.1509 27.8587 26.2958C28.2917 28.5413 29.1578 30.6419 30.3126 32.4527C31.6117 34.4809 33.2717 36.2193 35.2203 37.5956C38.1073 39.6237 41.6437 40.8551 45.4689 40.8551C49.2941 40.8551 52.5419 39.7686 55.3567 37.8129C57.4497 36.4366 59.1818 34.6258 60.481 32.5252C61.7801 30.497 62.6462 28.1791 63.0792 25.7163C64.0174 25.7887 64.8835 25.9336 65.7496 26.0785C66.9044 26.2233 68.1313 26.3682 69.2139 26.5131C71.3069 26.8028 73.0391 27.165 74.266 27.672C75.5652 28.1066 76.1425 28.7586 76.1425 29.5553C76.1425 30.2072 75.7095 30.7143 74.9156 31.2213C74.1217 31.6559 72.8226 32.0905 71.1626 32.3803C69.4304 32.67 67.1931 32.8149 64.4505 32.8149C64.0896 32.8149 63.8009 32.8149 63.4401 32.8149C62.3575 34.8431 60.914 36.6539 59.254 38.2475C60.9862 38.3199 62.6462 38.3924 64.4505 38.3924C70.1522 38.3924 74.9156 37.9578 78.7408 37.0885C82.566 36.2193 85.3807 35.1328 87.2572 33.6841C89.1337 32.3079 90.072 30.7867 90.072 29.0483C90.072 27.5272 89.4224 26.2233 88.1233 25.2093C86.8242 24.1952 85.1642 23.326 83.0712 22.7465C80.9782 22.167 78.7408 21.66 76.2147 21.2254C73.7608 20.8632 71.2348 20.501 68.7087 20.2113C67.6261 20.0664 66.76 19.994 65.7496 19.8491C64.8113 19.7767 63.8731 19.6318 63.007 19.5594M45.3968 35.5674C45.0359 35.5674 44.675 35.495 44.3142 35.4225C42.7985 35.2777 41.4272 34.9155 40.1281 34.336C38.396 33.5392 36.8803 32.3079 35.7255 30.8592C34.8595 29.7726 34.1377 28.6137 33.6325 27.3099C33.1273 25.9336 32.7664 24.4125 32.7664 22.8189C32.7664 22.0946 32.8386 21.3702 32.983 20.6459C33.416 17.9658 34.7151 15.5755 36.5194 13.7646C38.829 11.5191 41.9324 10.0704 45.4689 10.0704C45.9741 10.0704 46.4794 10.1429 47.0567 10.2153C47.2733 10.2153 47.4898 10.2153 47.7785 10.2153C50.9541 10.7948 53.6967 12.5332 55.5732 14.996C56.2949 16.0101 56.9445 17.0966 57.3775 18.2555C57.8827 19.6318 58.2436 21.1529 58.2436 22.7465C58.2436 23.4708 58.1714 24.2676 58.0271 24.992C57.5219 27.672 56.2949 30.0624 54.4184 31.8732C52.1089 34.1187 49.0054 35.495 45.6133 35.495L45.3968 35.5674Z" fill="#332E2B"/>
<path d="M46.9123 14.3441H43.6646V24.4849H43.8089H46.9123H53.4079V21.4426H46.9123V14.3441Z" fill="#332E2B"/>
</g>
<g clip-path="url(#clip1_5685_7094)">
<path d="M122.902 11.05H119.932V13.903H114.096V12.6517H106V31.9468H108.817V29.8196H114.096V25.9406H117.471L115.111 27.2169L115.364 27.5172C116.405 28.7435 117.775 30.5954 118.359 31.7716L118.511 32.0719L121.151 30.5203L120.998 30.245C120.313 29.0438 118.892 27.292 117.801 26.0657L117.699 25.9656H123.206V31.7466V31.8717C123.206 31.8717 123.155 31.8968 123.003 31.9218C121.81 31.9218 120.719 31.9218 119.806 31.8717H119.273L119.526 32.3222C119.831 32.8978 120.186 33.7737 120.288 34.3994L120.338 34.6747H120.618C122.648 34.6747 123.967 34.6496 124.906 34.2492C126.074 33.7987 126.226 32.7977 126.226 31.7967V25.9656H128.942V23.2878H126.226V21.5109H128.282V18.8582H122.978V16.6309H129.043V13.903H122.978V11.05H122.902ZM111.253 22.4619V27.1168H108.817V22.4619H111.253ZM111.253 15.3796V19.7841H108.817V15.3796H111.253ZM114.096 16.6058H119.932V18.8332H114.908V21.4859H123.206V23.2628H114.096V16.6058Z" fill="#332E2B"/>
<path d="M157.365 19.8342C158.405 18.7831 159.243 17.5568 159.877 16.2054H161.73V13.6277H153.964C154.269 13.0521 154.522 12.5766 154.751 12.1011L154.903 11.7758L152.061 11L151.959 11.2503C150.969 13.5527 149.218 15.755 147.239 17.1564L146.833 17.4567L147.29 17.682C147.873 17.9823 148.762 18.633 149.193 18.9583L149.396 19.1335L149.599 18.9583C150.056 18.5829 150.462 18.1825 150.868 17.7821C151.376 18.5078 151.959 19.1835 152.644 19.8342C151.756 20.3097 150.766 20.7101 149.726 21.0355C149.751 20.8853 149.802 20.7101 149.827 20.56L149.904 20.2847L148.102 19.659L147.696 19.8092H146.909L147.746 18.9082L147.467 18.708C146.909 18.2826 146.351 17.9322 145.792 17.5819C147.264 16.3806 148.635 14.9291 149.447 13.6027L149.624 13.3274L147.721 12.1762L147.29 12.2763H138.636V14.854H144.93C144.447 15.3796 143.914 15.8801 143.407 16.2805C142.747 15.9552 142.011 15.6298 141.275 15.3545L141.072 15.2795L139.143 17.2565L139.575 17.4317C141.097 18.0824 142.798 18.9583 144.092 19.7842H138.331V22.4369H141.707C140.742 24.6893 139.372 26.7664 138.078 27.8926L137.875 28.0678L138.027 28.293C138.458 28.9187 138.966 29.8446 139.194 30.4453L139.346 30.9208L139.702 30.5704C140.869 29.4442 141.859 27.8175 142.595 26.341V31.7466C142.595 31.7466 142.544 31.7466 142.468 31.7466C142.189 31.7466 141.224 31.7716 140.184 31.7216H139.651L139.879 32.1721C140.184 32.7977 140.463 33.7237 140.539 34.2742V34.5495H140.844C142.544 34.5495 143.559 34.4745 144.346 34.1241C145.259 33.6486 145.462 32.8728 145.462 31.6966V22.4119H146.706C146.325 23.9135 146.021 24.9896 145.691 25.7404L145.589 26.0156L147.772 27.0918L147.899 26.7914C148.076 26.366 148.279 25.8905 148.482 25.3149V27.5172H151.908C150.995 29.7696 149.32 31.2711 146.63 32.2471L146.122 32.4223L146.554 32.7727C147.011 33.1481 147.62 33.9739 147.873 34.4745L148 34.7247L148.279 34.6246C151.858 33.2482 154.015 30.9708 155.055 27.5172H158.126C157.847 29.8697 157.517 31.2211 157.136 31.5714C157.009 31.7216 156.908 31.7466 156.553 31.7466C156.045 31.7466 155.131 31.7216 154.218 31.6215L153.609 31.5714L153.888 32.097C154.192 32.6225 154.446 33.4984 154.497 34.1241V34.3994H154.802C155.969 34.4494 157.009 34.4494 157.669 34.3994C158.405 34.2993 158.989 34.0991 159.547 33.5485C160.334 32.7226 160.791 30.7205 161.222 26.2409C161.273 25.8905 161.298 25.3149 161.298 25.2899V24.9645H155.563C155.664 24.2888 155.74 23.6131 155.817 22.9374V22.5871H153.406C153.989 22.3118 154.522 22.0115 155.03 21.7112C156.629 22.7372 158.456 23.513 160.461 24.0386L160.715 24.1137L160.841 23.8884C161.121 23.3379 161.78 22.4619 162.237 22.0365L162.669 21.6361L162.085 21.5109C160.334 21.1356 158.786 20.585 157.415 19.8592L157.365 19.8342ZM156.527 16.2054C156.096 16.9562 155.537 17.6319 154.903 18.2325C154.116 17.5819 153.482 16.9062 152.949 16.2054H156.502H156.527ZM149.092 23.3629C149.193 23.5381 149.295 23.6882 149.345 23.8133L149.472 24.0636L149.751 23.9885C150.893 23.6382 151.908 23.2628 152.847 22.8624C152.771 23.5881 152.695 24.2888 152.594 24.9896H148.609C148.762 24.5141 148.939 23.9885 149.117 23.3879L149.092 23.3629Z" fill="#332E2B"/>
<path d="M186.6 19.4338V15.83C188.91 15.4797 192.056 14.9041 194.391 14.0282L194.797 13.878L192.818 11.3504L192.589 11.4505C190.737 12.2263 187.488 13.0021 183.859 13.5276L183.58 13.5777V21.8613C183.58 25.5902 183.174 29.7696 180.18 32.6726L179.875 32.9729L180.23 33.1731C180.738 33.4484 181.677 34.2743 182.032 34.6747L182.261 34.9249L182.514 34.6997C185.179 32.1721 186.524 28.1178 186.625 22.3618H189.366V34.6246H192.336V22.3118H195.026V19.4338H186.625H186.6Z" fill="#332E2B"/>
<path d="M182.133 17.2815H175.484V15.78C177.768 15.5047 180.864 14.9791 183.047 14.1533L183.453 14.0031L181.524 11.5255L181.296 11.6256C179.012 12.5766 175.002 13.1773 172.82 13.4526H172.541V22.562C172.541 26.2659 172.338 30.0949 170.84 32.8477L170.688 33.1481L170.993 33.2982C171.475 33.5235 172.414 34.2492 172.82 34.6997L173.099 35.025L173.327 34.6496C174.52 32.6225 175.205 29.6945 175.434 25.7153H182.159V17.2815H182.133ZM179.24 20.0094V22.9625H175.484V20.0094H179.24Z" fill="#332E2B"/>
</g>
<defs>
<clipPath id="clip0_5685_7094">
<rect width="90" height="36" fill="white" transform="translate(0 5)"/>
</clipPath>
<clipPath id="clip1_5685_7094">
<rect width="89" height="24" fill="white" transform="translate(106 11)"/>
</clipPath>
</defs>
</svg>
