<svg width="104" height="16" viewBox="0 0 104 16" fill="none" xmlns="http://www.w3.org/2000/svg">
<g clip-path="url(#clip0_5685_6292)">
<g clip-path="url(#clip1_5685_6292)">
<path d="M11.7113 12.616C11.4517 12.616 11.1598 12.616 10.8678 12.616C9.24574 12.616 7.59124 12.4846 5.96918 12.2218C4.412 11.959 3.04947 11.6304 1.91403 11.2362L0 13.3388C1.16788 13.7659 2.72506 14.0945 4.57421 14.3902C6.55312 14.6859 8.6618 14.8173 10.8354 14.8173C11.841 14.8173 12.717 14.7844 13.4307 14.7187C12.8143 14.0945 12.2952 13.4045 11.8735 12.5832H11.7113V12.616Z" fill="white"/>
<path d="M29.4889 3.35113C30.6893 3.35113 31.9545 3.4497 33.2521 3.61397C34.5173 3.77824 35.7501 4.04107 36.9504 4.36962L38.7023 2.26695C37.5019 1.90555 36.1394 1.64272 34.5822 1.44559C32.9277 1.24847 31.2083 1.1499 29.5214 1.1499C28.613 1.1499 27.6722 1.18276 26.7314 1.24846C27.3478 1.8727 27.8669 2.56263 28.2886 3.35113C28.6455 3.35113 29.0348 3.31828 29.4889 3.31828V3.35113Z" fill="white"/>
<path d="M39.1887 9.1663C38.6372 8.70634 37.891 8.34494 36.9827 8.08211C36.0743 7.81928 35.0362 7.5893 33.9332 7.39217C32.8302 7.2279 31.6948 7.06363 30.5593 6.93221C30.2674 6.93221 30.0078 6.8665 29.7483 6.83365C29.5861 6.83365 29.3914 6.8008 29.2292 6.76794H28.9697C28.6453 6.70223 28.2884 6.66938 27.9965 6.63653H27.8667V6.50511C27.6721 5.51948 27.3152 4.59956 26.7961 3.74536C26.2446 2.82544 25.4985 2.06979 24.655 1.44556C23.3249 0.492788 21.7353 -0.0328789 20.1133 -0.0328789C18.4912 -0.0328789 16.9989 0.42708 15.7013 1.347C14.8253 1.93837 14.0792 2.72687 13.4628 3.67965C12.8789 4.59956 12.522 5.61804 12.3274 6.70223V6.8665H12.1652C11.7759 6.83365 11.4515 6.8008 11.0946 6.73509L10.4782 6.66938C10.1862 6.66938 9.89428 6.60367 9.66719 6.57082C8.72639 6.4394 7.9478 6.27513 7.36386 6.04515C6.71504 5.81517 6.39063 5.45377 6.39063 5.02667C6.39063 4.69813 6.58527 4.36959 6.97457 4.10675C7.33142 3.87677 7.91536 3.67965 8.69395 3.54823C9.47254 3.41681 10.4782 3.3511 11.711 3.3511C11.7434 3.3511 11.8083 3.3511 11.8732 3.3511C12.2949 2.5626 12.814 1.87267 13.4304 1.24844C13.3006 1.24844 13.1384 1.24844 13.0086 1.24844C12.5869 1.21558 12.1652 1.18273 11.7434 1.18273C9.18057 1.18273 7.03945 1.37985 5.38495 1.74125C3.73045 2.10264 2.46524 2.62831 1.65421 3.25254C0.843181 3.87677 0.486328 4.501 0.486328 5.25665C0.486328 5.91373 0.745858 6.47225 1.26492 6.89936C1.78398 7.35932 2.53012 7.72071 3.47092 8.0164C4.41171 8.31209 5.44983 8.54207 6.55283 8.70634C7.65583 8.87061 8.79128 9.03488 9.89428 9.13345C10.1214 9.13345 10.3485 9.19915 10.5755 9.23201L11.2568 9.33057C11.5812 9.36342 11.9056 9.39628 12.23 9.46199H12.3598V9.5934C12.5545 10.5462 12.9113 11.4661 13.4304 12.3532C14.0143 13.2731 14.728 14.0287 15.5715 14.653C16.9016 15.6057 18.4588 16.0985 20.0808 16.0985C21.7029 16.0985 23.1303 15.6386 24.4604 14.7515C25.3687 14.1601 26.1149 13.3716 26.7313 12.4189C27.3152 11.4989 27.7045 10.4805 27.8667 9.39628V9.23201H28.0614C28.3533 9.26486 28.6453 9.29772 28.9373 9.33057L29.7807 9.42913C30.1376 9.46199 30.4944 9.5277 30.7864 9.56055C31.7596 9.69197 32.5382 9.88909 33.0897 10.0862C33.7386 10.3162 34.063 10.6776 34.063 11.1047C34.063 11.4661 33.8683 11.7618 33.4466 11.9918C33.0573 12.2217 32.4734 12.386 31.6948 12.5174C30.9162 12.6488 29.9105 12.7146 28.6453 12.7146C28.548 12.7146 28.4831 12.7146 28.3858 12.7146C28.3858 12.7146 28.3209 12.7146 28.2884 12.7146C27.8343 13.5031 27.3152 14.2258 26.6988 14.8501C27.3476 14.8501 27.9965 14.9158 28.6453 14.9158C31.2081 14.9158 33.3493 14.7187 35.0362 14.3244C36.7232 13.9302 37.9884 13.4373 38.7994 12.8131C39.6104 12.2217 39.9997 11.5647 39.9997 10.8419C39.9997 10.1848 39.7402 9.65911 39.1887 9.23201V9.1663ZM25.8553 9.03488C25.6283 10.2833 25.0443 11.3675 24.1684 12.2546C23.0654 13.3388 21.6056 13.9302 20.0808 13.9302C19.951 13.9302 19.8537 13.9302 19.724 13.9302H19.5618C18.848 13.8316 18.1992 13.6673 17.6153 13.4045C16.8367 13.0431 16.1554 12.4846 15.5715 11.7946C15.1498 11.269 14.8253 10.7104 14.5983 10.1191C14.3387 9.42913 14.209 8.70634 14.209 8.0164C14.209 7.65501 14.2738 7.29361 14.3063 6.99792C14.5009 5.74946 15.0849 4.66527 15.9283 3.77821C17.0313 2.66117 18.4912 2.06979 20.0484 2.06979C20.243 2.06979 20.4377 2.06979 20.5999 2.10264H20.7621C20.7621 2.10264 20.827 2.10264 20.8918 2.10264C20.9567 2.10264 21.0216 2.10264 21.0865 2.10264C22.5139 2.36548 23.7791 3.15398 24.6875 4.33673C25.0443 4.79669 25.3363 5.32236 25.5309 5.84802C25.7905 6.53796 25.9202 7.2279 25.9202 7.91784C25.9202 8.21353 25.9202 8.54207 25.8229 8.93632L25.8553 9.03488Z" fill="white"/>
<path d="M20.665 4.2382H19.4971V8.50924H23.5847V7.45791H20.665V4.2382Z" fill="white"/>
</g>
<g clip-path="url(#clip2_5685_6292)">
<path d="M58.6347 0.531281H56.7665V2.31439H53.0938V1.53232H48V13.5918H49.7725V12.2622H53.0938V9.83785H55.2176L53.7325 10.6356L53.8922 10.8232C54.5469 11.5897 55.4092 12.7471 55.7764 13.4823L55.8723 13.67L57.5329 12.7002L57.4371 12.5281C57.006 11.7774 56.1118 10.6825 55.4251 9.91605L55.3613 9.85349H58.8263V13.4666V13.5448C58.8263 13.5448 58.7944 13.5605 58.6986 13.5761C57.9481 13.5761 57.2615 13.5761 56.6866 13.5448H56.3513L56.511 13.8264C56.7026 14.1861 56.9261 14.7336 56.99 15.1246L57.022 15.2967H57.1976C58.475 15.2967 59.3054 15.281 59.8962 15.0308C60.6307 14.7492 60.7265 14.1236 60.7265 13.4979V9.85349H62.4351V8.17987H60.7265V7.06934H62.02V5.41136H58.6826V4.01929H62.499V2.31439H58.6826V0.531281H58.6347ZM51.3054 7.66371V10.573H49.7725V7.66371H51.3054ZM51.3054 3.23722V5.99009H49.7725V3.23722H51.3054ZM53.0938 4.00365H56.7665V5.39572H53.6048V7.0537H58.8263V8.16423H53.0938V4.00365Z" fill="white"/>
<path d="M80.3191 6.02138C80.9738 5.36444 81.5008 4.59802 81.9 3.75339H83.0656V2.14234H78.1794C78.371 1.78259 78.5307 1.4854 78.6744 1.18822L78.7702 0.98488L76.9818 0.5L76.9179 0.656413C76.2952 2.09541 75.1934 3.47185 73.9479 4.34776L73.6924 4.53545L73.9798 4.67622C74.3471 4.86392 74.906 5.27059 75.1774 5.47393L75.3052 5.58342L75.4329 5.47393C75.7203 5.23931 75.9758 4.98905 76.2313 4.73879C76.5507 5.19239 76.9179 5.6147 77.3491 6.02138C76.7902 6.31856 76.1674 6.56882 75.5127 6.77216C75.5287 6.67831 75.5607 6.56882 75.5766 6.47497L75.6245 6.30292L74.4908 5.91189L74.2353 6.00573H73.7403L74.2672 5.44265L74.0916 5.31752C73.7403 5.05162 73.389 4.83264 73.0377 4.61366C73.9638 3.86288 74.8261 2.95568 75.3371 2.12669L75.4489 1.95464L74.2513 1.23514L73.9798 1.29771H68.5347V2.90876H72.4948C72.1914 3.23723 71.8561 3.55005 71.5367 3.80031C71.1215 3.59698 70.6585 3.39364 70.1954 3.22158L70.0676 3.17466L68.8541 4.41032L69.1255 4.51981C70.0836 4.92649 71.1535 5.47393 71.9678 5.99009H68.3431V7.64807H70.4668C69.8601 9.05579 68.9978 10.354 68.1834 11.0579L68.0557 11.1674L68.1515 11.3081C68.4229 11.6992 68.7423 12.2779 68.886 12.6533L68.9818 12.9505L69.2054 12.7315C69.9399 12.0276 70.5626 11.0109 71.0257 10.0881V13.4666C71.0257 13.4666 70.9938 13.4666 70.9459 13.4666C70.7702 13.4666 70.1634 13.4823 69.5088 13.451H69.1734L69.3171 13.7325C69.5088 14.1236 69.6844 14.7023 69.7323 15.0464V15.2185H69.9239C70.9938 15.2185 71.6325 15.1715 72.1275 14.9526C72.7024 14.6554 72.8301 14.1705 72.8301 13.4353V7.63243H73.6126C73.373 8.57091 73.1814 9.24348 72.9738 9.71272L72.91 9.88478L74.2832 10.5574L74.363 10.3697C74.4748 10.1038 74.6026 9.80657 74.7303 9.44682V10.8233H76.886C76.3112 12.231 75.2573 13.1694 73.5646 13.7795L73.2453 13.8889L73.5167 14.1079C73.8042 14.3425 74.1874 14.8587 74.3471 15.1715L74.4269 15.3279L74.6026 15.2654C76.8541 14.4051 78.2114 12.9818 78.866 10.8233H80.7982C80.6225 12.2935 80.4149 13.1382 80.1754 13.3571C80.0956 13.451 80.0317 13.4666 79.8082 13.4666C79.4888 13.4666 78.9139 13.451 78.3391 13.3884L77.9559 13.3571L78.1315 13.6856C78.3231 14.0141 78.4828 14.5615 78.5147 14.9526V15.1246H78.7064C79.4409 15.1559 80.0956 15.1559 80.5108 15.1246C80.9738 15.062 81.3411 14.9369 81.6924 14.5928C82.1874 14.0766 82.4748 12.8253 82.7463 10.0255C82.7782 9.80657 82.7942 9.44682 82.7942 9.43118V9.22784H79.1854C79.2493 8.80553 79.2972 8.38321 79.3451 7.9609V7.74192H77.8281C78.1954 7.56986 78.5307 7.38217 78.8501 7.19447C79.8561 7.83577 81.0058 8.32065 82.2672 8.64911L82.4269 8.69604L82.5068 8.55527C82.6824 8.21116 83.0976 7.66371 83.385 7.39781L83.6565 7.14755L83.2892 7.06934C82.1874 6.83472 81.2134 6.49061 80.3511 6.03702L80.3191 6.02138ZM79.7922 3.75339C79.5207 4.22263 79.1694 4.64494 78.7702 5.02033C78.2752 4.61366 77.876 4.19134 77.5407 3.75339H79.7762H79.7922ZM75.1135 8.2268C75.1774 8.33629 75.2413 8.43013 75.2732 8.50834L75.3531 8.66475L75.5287 8.61783C76.2473 8.39885 76.886 8.16423 77.4768 7.91397C77.4289 8.36757 77.381 8.80553 77.3171 9.24348H74.8102C74.906 8.9463 75.0177 8.61783 75.1295 8.24244L75.1135 8.2268Z" fill="white"/>
<path d="M98.7149 5.7711V3.51876C100.168 3.29978 102.148 2.94003 103.617 2.39258L103.873 2.29873L102.627 0.718964L102.483 0.781529C101.318 1.26641 99.2738 1.75129 96.9904 2.07976L96.8147 2.11104V7.28831C96.8147 9.61886 96.5592 12.231 94.675 14.0453L94.4834 14.233L94.707 14.3582C95.0263 14.5302 95.6171 15.0464 95.8407 15.2966L95.9844 15.4531L96.1441 15.3123C97.8207 13.7325 98.667 11.1986 98.7309 7.60113H100.455V15.2654H102.324V7.56985H104.016V5.7711H98.7309H98.7149Z" fill="white"/>
<path d="M95.9047 4.42596H91.7211V3.48748C93.1582 3.31543 95.1063 2.98696 96.4796 2.4708L96.7351 2.37695L95.5215 0.828461L95.3778 0.891026C93.9406 1.48539 91.4177 1.86079 90.0444 2.03284H89.8688V7.72627C89.8688 10.0412 89.741 12.4343 88.7989 14.1548L88.7031 14.3425L88.8947 14.4364C89.1981 14.5772 89.789 15.0308 90.0444 15.3123L90.2201 15.5156L90.3638 15.281C91.1143 14.0141 91.5454 12.184 91.6892 9.69707H95.9207V4.42596H95.9047ZM94.0844 6.13086V7.97653H91.7211V6.13086H94.0844Z" fill="white"/>
</g>
</g>
<defs>
<clipPath id="clip0_5685_6292">
<rect width="104" height="16" fill="white"/>
</clipPath>
<clipPath id="clip1_5685_6292">
<rect width="40" height="16" fill="white"/>
</clipPath>
<clipPath id="clip2_5685_6292">
<rect width="56" height="15" fill="white" transform="translate(48 0.5)"/>
</clipPath>
</defs>
</svg>
