<svg width="120" height="48" viewBox="0 0 120 48" fill="none" xmlns="http://www.w3.org/2000/svg">
<g clip-path="url(#clip0_5685_7072)">
<path d="M35.1338 37.848C34.3552 37.848 33.4793 37.848 32.6034 37.848C27.7372 37.848 22.7737 37.4538 17.9075 36.6653C13.236 35.8768 9.14842 34.8912 5.74209 33.7084L0 40.0164C3.50365 41.2977 8.17518 42.2834 13.7226 43.1704C19.6594 44.0575 25.9854 44.4517 32.5061 44.4517C35.5231 44.4517 38.1508 44.3532 40.292 44.1561C38.4428 42.2834 36.8856 40.2136 35.6204 37.7495H35.1338V37.848Z" fill="white"/>
<path d="M88.4673 10.0534C92.0683 10.0534 95.8639 10.3491 99.7569 10.8419C103.552 11.3347 107.251 12.1232 110.852 13.1088L116.107 6.80082C112.506 5.71663 108.419 4.92813 103.747 4.33676C98.7836 3.74538 93.6255 3.44969 88.5647 3.44969C85.8396 3.44969 83.0172 3.54825 80.1948 3.74538C82.044 5.61807 83.6012 7.68788 84.8664 10.0534C85.9369 10.0534 87.1048 9.95483 88.4673 9.95483V10.0534Z" fill="white"/>
<path d="M117.567 27.499C115.913 26.1191 113.674 25.0349 110.949 24.2464C108.224 23.4579 105.11 22.768 101.801 22.1766C98.4916 21.6838 95.0853 21.191 91.6789 20.7967C90.803 20.7967 90.0245 20.5996 89.2459 20.501C88.7592 20.501 88.1753 20.4025 87.6887 20.3039H86.9101C85.9369 20.1068 84.8663 20.0082 83.9904 19.9097H83.6011V19.5154C83.0172 16.5585 81.9466 13.7988 80.3894 11.2361C78.7349 8.47639 76.4965 6.20945 73.966 4.33676C69.9758 1.47845 65.2069 -0.0985565 60.3407 -0.0985565C55.4746 -0.0985565 50.9977 1.28132 47.1047 4.04107C44.477 5.8152 42.2386 8.1807 40.3894 11.039C38.6376 13.7988 37.567 16.8542 36.9831 20.1068V20.5996H36.4965C35.3286 20.501 34.3553 20.4025 33.2848 20.2053L31.4356 20.0082C30.5597 20.0082 29.6838 19.8111 29.0025 19.7125C26.1802 19.3183 23.8444 18.8255 22.0926 18.1355C20.1461 17.4456 19.1729 16.3614 19.1729 15.0801C19.1729 14.0945 19.7568 13.1088 20.9247 12.3203C21.9952 11.6304 23.7471 11.039 26.0828 10.6448C28.4186 10.2505 31.4356 10.0534 35.1339 10.0534C35.2313 10.0534 35.4259 10.0534 35.6205 10.0534C36.8858 7.68789 38.4429 5.61808 40.2921 3.74539C39.9028 3.74539 39.4162 3.74539 39.0269 3.74539C37.7617 3.64682 36.4965 3.54826 35.2313 3.54826C27.5427 3.54826 21.1193 4.13964 16.1558 5.22382C11.1923 6.30801 7.3967 7.88502 4.96361 9.75771C2.53052 11.6304 1.45996 13.5031 1.45996 15.77C1.45996 17.7413 2.23855 19.4168 3.79573 20.6982C5.35291 22.078 7.59135 23.1622 10.4137 24.0493C13.2361 24.9363 16.3505 25.6263 19.6595 26.1191C22.9685 26.6119 26.3748 27.1047 29.6838 27.4004C30.3651 27.4004 31.0463 27.5975 31.7276 27.6961L33.7714 27.9918C34.7446 28.0904 35.7179 28.1889 36.6911 28.386H37.0804V28.7803C37.6643 31.6386 38.7349 34.3984 40.2921 37.0596C42.0439 39.8193 44.185 42.0862 46.7154 43.9589C50.7057 46.8173 55.3772 48.2957 60.2434 48.2957C65.1096 48.2957 69.3918 46.9158 73.3821 44.2546C76.1072 42.4805 78.3456 40.115 80.1948 37.2567C81.9466 34.4969 83.1145 31.4415 83.6011 28.1889V27.6961H84.185C85.0609 27.7947 85.9369 27.8932 86.8128 27.9918L89.3432 28.2875C90.4137 28.386 91.4843 28.5832 92.3602 28.6817C95.2799 29.076 97.6157 29.6674 99.2702 30.2587C101.217 30.9487 102.19 32.0329 102.19 33.3142C102.19 34.3984 101.606 35.2854 100.341 35.9754C99.1729 36.6653 97.421 37.1581 95.0853 37.5524C92.7495 37.9466 89.7325 38.1437 85.9369 38.1437C85.6449 38.1437 85.4502 38.1437 85.1583 38.1437C85.1583 38.1437 84.9636 38.1437 84.8663 38.1437C83.5038 40.5092 81.9466 42.6776 80.0974 44.5503C82.0439 44.5503 83.9904 44.7474 85.9369 44.7474C93.6254 44.7474 100.049 44.1561 105.11 42.9733C110.17 41.7906 113.966 40.3121 116.399 38.4394C118.832 36.6653 120 34.694 120 32.5257C120 30.5544 119.222 28.9774 117.567 27.6961V27.499ZM77.567 27.1047C76.8858 30.8501 75.1339 34.1027 72.5062 36.7639C69.1972 40.0164 64.8176 41.7906 60.2434 41.7906C59.8541 41.7906 59.5622 41.7906 59.1729 41.7906H58.6862C56.5451 41.4949 54.5986 41.0021 52.8468 40.2136C50.5111 39.1294 48.4673 37.4538 46.7154 35.384C45.4502 33.807 44.477 32.1314 43.7957 30.3573C43.0171 28.2875 42.6278 26.1191 42.6278 24.0493C42.6278 22.9651 42.8225 21.8809 42.9198 20.9938C43.5038 17.2485 45.2556 13.9959 47.786 11.3347C51.095 7.98358 55.4746 6.20945 60.1461 6.20945C60.73 6.20945 61.314 6.20945 61.8006 6.30801H62.2872C62.2872 6.30801 62.4819 6.30801 62.6765 6.30801C62.8712 6.30801 63.0658 6.30801 63.2605 6.30801C67.5427 7.09651 71.3383 9.46202 74.0634 13.0103C75.1339 14.3901 76.0098 15.9671 76.5938 17.5442C77.3724 19.614 77.7617 21.6838 77.7617 23.7536C77.7617 24.6407 77.7617 25.6263 77.4697 26.809L77.567 27.1047Z" fill="white"/>
<path d="M61.9953 12.7146H58.4917V25.5277H70.7545V22.3737H61.9953V12.7146Z" fill="white"/>
</g>
<defs>
<clipPath id="clip0_5685_7072">
<rect width="120" height="48" fill="white"/>
</clipPath>
</defs>
</svg>
