<svg width="236" height="40" viewBox="0 0 236 40" fill="none" xmlns="http://www.w3.org/2000/svg">
<g clip-path="url(#clip0_5685_7083)">
<g clip-path="url(#clip1_5685_7083)">
<path d="M29.2782 31.54C28.6294 31.54 27.8994 31.54 27.1695 31.54C23.1144 31.54 18.9781 31.2115 14.923 30.5544C11.03 29.8973 7.62368 29.076 4.78508 28.0903L0 33.347C2.91971 34.4148 6.81265 35.2361 11.4355 35.9754C16.3828 36.7146 21.6545 37.0431 27.0884 37.0431C29.6026 37.0431 31.7924 36.961 33.5766 36.7967C32.0357 35.2361 30.738 33.5113 29.6837 31.4579H29.2782V31.54Z" fill="white"/>
<path d="M73.7229 8.37782C76.7237 8.37782 79.8867 8.62423 83.1308 9.03491C86.2938 9.44558 89.3757 10.1027 92.3765 10.924L96.7561 5.66735C93.7553 4.76386 90.349 4.10677 86.456 3.61396C82.3198 3.12115 78.0213 2.87474 73.804 2.87474C71.5331 2.87474 69.1811 2.95688 66.8291 3.12115C68.3701 4.68172 69.6677 6.40657 70.722 8.37782C71.6142 8.37782 72.5874 8.29569 73.7229 8.29569V8.37782Z" fill="white"/>
<path d="M97.9722 22.9158C96.5935 21.7659 94.7281 20.8624 92.4572 20.2053C90.1863 19.5483 87.591 18.9733 84.8335 18.4805C82.076 18.0698 79.2374 17.6591 76.3988 17.3306C75.6689 17.3306 75.0201 17.1663 74.3712 17.0842C73.9657 17.0842 73.4791 17.0021 73.0736 16.9199H72.4248C71.6137 16.7556 70.7216 16.6735 69.9917 16.5914H69.6673V16.2628C69.1806 13.7988 68.2885 11.499 66.9909 9.36345C65.6121 7.06365 63.7467 5.17454 61.6381 3.61396C58.3128 1.23203 54.3388 -0.0821381 50.2836 -0.0821381C46.2285 -0.0821381 42.4977 1.06776 39.2536 3.36755C37.0638 4.84599 35.1985 6.81725 33.6575 9.19918C32.1977 11.499 31.3055 14.0452 30.8189 16.7556V17.1663H30.4134C29.4402 17.0842 28.6291 17.0021 27.737 16.8378L26.196 16.6735C25.4661 16.6735 24.7362 16.5092 24.1685 16.4271C21.8165 16.0986 19.87 15.6879 18.4101 15.1129C16.7881 14.538 15.9771 13.6345 15.9771 12.5667C15.9771 11.7454 16.4637 10.924 17.4369 10.2669C18.329 9.69199 19.7889 9.19918 21.7354 8.87064C23.6818 8.54209 26.196 8.37782 29.2779 8.37782C29.3591 8.37782 29.5213 8.37782 29.6835 8.37782C30.7378 6.40657 32.0354 4.68172 33.5764 3.12115C33.252 3.12115 32.8465 3.12115 32.5221 3.12115C31.4677 3.03901 30.4134 2.95688 29.3591 2.95688C22.9519 2.95688 17.5991 3.44969 13.4629 4.35318C9.32661 5.25667 6.16359 6.57084 4.13602 8.13142C2.10844 9.69199 1.21631 11.2526 1.21631 13.1417C1.21631 14.7844 1.86513 16.1807 3.16278 17.2485C4.46043 18.3984 6.3258 19.3018 8.67779 20.0411C11.0298 20.7803 13.6251 21.3552 16.3826 21.7659C19.1401 22.1766 21.9787 22.5873 24.7362 22.8337C25.3039 22.8337 25.8716 22.9979 26.4393 23.0801L28.1425 23.3265C28.9535 23.4086 29.7646 23.4908 30.5756 23.655H30.9V23.9836C31.3866 26.3655 32.2788 28.6653 33.5764 30.883C35.0363 33.1828 36.8205 35.0719 38.9292 36.6324C42.2544 39.0144 46.1474 40.2464 50.2025 40.2464C54.2577 40.2464 57.8262 39.0965 61.1514 36.8789C63.4223 35.4004 65.2877 33.4292 66.8286 31.0472C68.2885 28.7474 69.2617 26.2012 69.6673 23.4908V23.0801H70.1539C70.8838 23.1622 71.6137 23.2444 72.3437 23.3265L74.4523 23.5729C75.3445 23.655 76.2366 23.8193 76.9665 23.9014C79.3996 24.23 81.3461 24.7228 82.7248 25.2156C84.3469 25.7906 85.1579 26.694 85.1579 27.7618C85.1579 28.6653 84.6713 29.4045 83.617 29.9795C82.6437 30.5544 81.1839 30.9651 79.2374 31.2936C77.2909 31.6222 74.7767 31.7864 71.6137 31.7864C71.3704 31.7864 71.2082 31.7864 70.9649 31.7864C70.9649 31.7864 70.8027 31.7864 70.7216 31.7864C69.5862 33.7577 68.2885 35.5647 66.7475 37.1253C68.3696 37.1253 69.9917 37.2895 71.6137 37.2895C78.0209 37.2895 83.3737 36.7967 87.591 35.8111C91.8084 34.8255 94.9714 33.5934 96.999 32.0329C99.0265 30.5544 99.9998 28.9117 99.9998 27.1047C99.9998 25.462 99.351 24.1478 97.9722 23.0801V22.9158ZM64.6389 22.5873C64.0711 25.7084 62.6113 28.4189 60.4215 30.6366C57.664 33.347 54.0144 34.8255 50.2025 34.8255C49.8781 34.8255 49.6348 34.8255 49.3104 34.8255H48.9049C47.1206 34.5791 45.4986 34.1684 44.0387 33.5113C42.0922 32.6078 40.3891 31.2115 38.9292 29.4867C37.8749 28.1725 37.0638 26.7762 36.4961 25.2977C35.8473 23.5729 35.5229 21.7659 35.5229 20.0411C35.5229 19.1376 35.6851 18.2341 35.7662 17.4949C36.2528 14.3737 37.7127 11.6632 39.8213 9.44558C42.5788 6.65298 46.2285 5.17454 50.1214 5.17454C50.608 5.17454 51.0947 5.17454 51.5002 5.25667H51.9057C51.9057 5.25667 52.0679 5.25667 52.2301 5.25667C52.3923 5.25667 52.5545 5.25667 52.7167 5.25667C56.2853 5.91376 59.4483 7.88501 61.7192 10.8419C62.6113 11.9918 63.3412 13.306 63.8278 14.6201C64.4767 16.345 64.8011 18.0698 64.8011 19.7947C64.8011 20.5339 64.8011 21.3552 64.5578 22.3409L64.6389 22.5873Z" fill="white"/>
<path d="M51.6624 10.5955H48.7427V21.2731H58.9617V18.6448H51.6624V10.5955Z" fill="white"/>
</g>
<g clip-path="url(#clip2_5685_7083)">
<path d="M145.269 5.06256H141.533V8.62878H134.188V7.06465H124V31.1835H127.545V28.5245H134.188V23.6757H138.435L135.465 25.2711L135.784 25.6465C137.094 27.1793 138.818 29.4943 139.553 30.9645L139.745 31.3399L143.066 29.4004L142.874 29.0563C142.012 27.5547 140.224 25.365 138.85 23.8321L138.723 23.707H145.653V30.9333V31.0897C145.653 31.0897 145.589 31.1209 145.397 31.1522C143.896 31.1522 142.523 31.1522 141.373 31.0897H140.703L141.022 31.6528C141.405 32.3723 141.852 33.4671 141.98 34.2492L142.044 34.5933H142.395C144.95 34.5933 146.611 34.562 147.792 34.0615C149.261 33.4984 149.453 32.2471 149.453 30.9958V23.707H152.87V20.3597H149.453V18.1387H152.04V14.8227H145.365V12.0386H152.998V8.62878H145.365V5.06256H145.269ZM130.611 19.3274V25.146H127.545V19.3274H130.611ZM130.611 10.4744V15.9802H127.545V10.4744H130.611ZM134.188 12.0073H141.533V14.7914H135.21V18.1074H145.653V20.3285H134.188V12.0073Z" fill="white"/>
<path d="M188.639 16.0428C189.948 14.7289 191.002 13.196 191.8 11.5068H194.132V8.28467H184.359C184.743 7.56517 185.062 6.9708 185.349 6.37643L185.541 5.96976L181.964 5L181.836 5.31283C180.591 8.19082 178.387 10.9437 175.896 12.6955L175.385 13.0709L175.96 13.3524C176.695 13.7278 177.812 14.5412 178.355 14.9479L178.611 15.1668L178.866 14.9479C179.441 14.4786 179.952 13.9781 180.463 13.4776C181.102 14.3848 181.836 15.2294 182.699 16.0428C181.581 16.6371 180.335 17.1376 179.026 17.5443C179.058 17.3566 179.122 17.1376 179.154 16.9499L179.25 16.6058L176.982 15.8238L176.471 16.0115H175.481L176.535 14.8853L176.184 14.635C175.481 14.1032 174.778 13.6653 174.076 13.2273C175.928 11.7258 177.653 9.91137 178.675 8.25339L178.898 7.90928L176.503 6.47028L175.96 6.59541H165.07V9.81752H172.99C172.383 10.4745 171.713 11.1001 171.074 11.6006C170.244 11.194 169.317 10.7873 168.391 10.4432L168.136 10.3493L165.709 12.8206L166.252 13.0396C168.168 13.853 170.307 14.9479 171.936 15.9802H164.687V19.2961H168.934C167.721 22.1116 165.996 24.708 164.367 26.1157L164.112 26.3347L164.303 26.6163C164.846 27.3983 165.485 28.5558 165.772 29.3066L165.964 29.9009L166.411 29.463C167.88 28.0553 169.126 26.0219 170.052 24.1762V30.9333C170.052 30.9333 169.988 30.9333 169.892 30.9333C169.541 30.9333 168.327 30.9645 167.018 30.902H166.347L166.635 31.4651C167.018 32.2471 167.369 33.4046 167.465 34.0928V34.4369H167.848C169.988 34.4369 171.266 34.3431 172.256 33.9051C173.405 33.3107 173.661 32.341 173.661 30.8707V19.2649H175.226C174.747 21.1418 174.363 22.487 173.948 23.4254L173.82 23.7696L176.567 25.1147L176.727 24.7393C176.95 24.2075 177.206 23.6131 177.461 22.8936V25.6465H181.772C180.623 28.4619 178.515 30.3389 175.13 31.5589L174.491 31.7779L175.034 32.2158C175.609 32.6851 176.375 33.7174 176.695 34.3431L176.854 34.6559L177.206 34.5308C181.709 32.8102 184.423 29.9635 185.733 25.6465H189.597C189.246 28.5871 188.83 30.2763 188.351 30.7143C188.192 30.902 188.064 30.9333 187.617 30.9333C186.978 30.9333 185.828 30.902 184.679 30.7768L183.912 30.7143L184.264 31.3712C184.647 32.0282 184.966 33.123 185.03 33.9051V34.2492H185.413C186.882 34.3118 188.192 34.3118 189.022 34.2492C189.948 34.1241 190.683 33.8738 191.385 33.1856C192.375 32.1533 192.95 29.6507 193.493 24.0511C193.557 23.6131 193.589 22.8936 193.589 22.8624V22.4557H186.371C186.499 21.6111 186.595 20.7664 186.691 19.9218V19.4838H183.657C184.391 19.1397 185.062 18.7643 185.701 18.3889C187.713 19.6715 190.012 20.6413 192.535 21.2982L192.854 21.3921L193.014 21.1105C193.365 20.4223 194.196 19.3274 194.771 18.7956L195.313 18.2951L194.579 18.1387C192.375 17.6694 190.427 16.9812 188.703 16.074L188.639 16.0428ZM187.585 11.5068C187.042 12.4453 186.339 13.2899 185.541 14.0407C184.551 13.2273 183.753 12.3827 183.082 11.5068H187.553H187.585ZM178.228 20.4536C178.355 20.6726 178.483 20.8603 178.547 21.0167L178.707 21.3295L179.058 21.2357C180.495 20.7977 181.772 20.3285 182.954 19.8279C182.858 20.7351 182.763 21.6111 182.635 22.487H177.621C177.812 21.8926 178.036 21.2357 178.26 20.4849L178.228 20.4536Z" fill="white"/>
<path d="M225.429 15.5422V11.0375C228.335 10.5996 232.295 9.88009 235.233 8.78519L235.744 8.5975L233.253 5.43796L232.966 5.56309C230.634 6.53285 226.547 7.50261 221.98 8.15954L221.628 8.22211V18.5766C221.628 23.2378 221.118 28.4619 217.349 32.0907L216.966 32.4661L217.413 32.7164C218.052 33.0605 219.233 34.0928 219.68 34.5933L219.968 34.9062L220.287 34.6246C223.64 31.4651 225.333 26.3973 225.461 19.2023H228.91V34.5308H232.646V19.1397H236.032V15.5422H225.461H225.429Z" fill="white"/>
<path d="M219.808 12.8519H211.441V10.975C214.315 10.6309 218.212 9.97393 220.958 8.94161L221.469 8.75391L219.042 5.65694L218.755 5.78207C215.88 6.97081 210.834 7.72159 208.088 8.0657H207.737V19.4526C207.737 24.0824 207.481 28.8686 205.597 32.3097L205.405 32.6851L205.789 32.8728C206.395 33.1543 207.577 34.0615 208.088 34.6246L208.439 35.0313L208.727 34.562C210.228 32.0282 211.09 28.3681 211.377 23.3942H219.84V12.8519H219.808ZM216.168 16.2617V19.9531H211.441V16.2617H216.168Z" fill="white"/>
</g>
</g>
<defs>
<clipPath id="clip0_5685_7083">
<rect width="236" height="40" fill="white"/>
</clipPath>
<clipPath id="clip1_5685_7083">
<rect width="100" height="40" fill="white"/>
</clipPath>
<clipPath id="clip2_5685_7083">
<rect width="112" height="30" fill="white" transform="translate(124 5)"/>
</clipPath>
</defs>
</svg>
